<svg xmlns="http://www.w3.org/2000/svg" width="15.892" height="16.799" viewBox="0 0 15.892 16.799">
  <path id="ic_s_2" d="M1647.236,1005.306a5.665,5.665,0,0,0,7.631.641l.967,1.022a1.028,1.028,0,0,0,.182,1.121l2.737,2.893a1.493,1.493,0,0,0,2.2,0,1.706,1.706,0,0,0,0-2.32l-2.736-2.893a.9.9,0,0,0-1.06-.193l-.968-1.022a6.5,6.5,0,0,0-.606-8.066,5.683,5.683,0,0,0-8.342,0,6.5,6.5,0,0,0,0,8.818m9.22,1.857.878-.929a.3.3,0,0,1,.439,0l2.736,2.893a1.023,1.023,0,0,1,0,1.392.894.894,0,0,1-1.317,0l-2.737-2.893a.342.342,0,0,1,0-.464m-1.1-1.631q.116-.11.226-.225t.213-.238l.884.935-.439.464Zm-7.677-8.579a5.085,5.085,0,0,1,7.463,0,5.8,5.8,0,0,1,0,7.89,5.071,5.071,0,0,1-7.463,0,5.815,5.815,0,0,1,0-7.89" transform="translate(-1645.511 -994.665)" fill="#fff"/>
</svg>
